<svg id="Layer_1" data-name="Layer 1" xmlns="http://www.w3.org/2000/svg" viewBox="0 0 467.14 38.96"><defs><style>.cls-1{fill:#15ff5d;}.cls-2{fill:#ff1010;}.cls-3{fill:#fff;}</style></defs><title>CodeNestLogo</title><path class="cls-1" d="M466.11,24.88c1.26-4.87,2.23-8.53-2.62-11.31-5.17-3-10-6.44-15.06-9.66C446.31,2.55,444.13,1.3,442,0l-1.26.81c.72,2.89.47,7,2.31,8.44C450.16,14.79,458,19.48,466.11,24.88Zm-11.2,4.46c-3.14-1.67-4.46-5.23-8.28-2.32-5.76,4.38-6.49,5.63-4.26,11.88Z" transform="translate(0)"/><path class="cls-1" d="M466.11,24.88c-8.15-5.4-16-10.09-23.09-15.63-1.84-1.43-1.59-5.55-2.31-8.44L442,0c2.16,1.3,4.34,2.55,6.46,3.91,5,3.22,9.89,6.71,15.06,9.66C468.34,16.35,467.37,20,466.11,24.88Z" transform="translate(0)"/><path class="cls-1" d="M454.91,29.34,442.37,38.9c-2.23-6.25-1.5-7.5,4.26-11.88C450.45,24.11,451.77,27.67,454.91,29.34Z" transform="translate(0)"/><path class="cls-2" d="M1,14.08C-.24,19-1.21,22.61,3.64,25.39c5.17,2.95,10,6.44,15.06,9.66C20.82,36.41,23,37.66,25.16,39l1.26-.81c-.71-2.89-.46-7-2.31-8.44C17,24.17,9.17,19.48,1,14.08Z" transform="translate(0)"/><path class="cls-2" d="M12.28,9.62c3.13,1.67,4.46,5.23,8.28,2.32C26.31,7.56,27.05,6.31,24.81.06Z" transform="translate(0)"/><path class="cls-2" d="M1,14.08C9.17,19.48,17,24.17,24.11,29.71c1.85,1.43,1.6,5.55,2.31,8.44L25.16,39c-2.15-1.3-4.34-2.55-6.46-3.91-5-3.22-9.89-6.71-15.06-9.66C-1.21,22.61-.24,19,1,14.08Z" transform="translate(0)"/><path class="cls-2" d="M12.28,9.62,24.81.06c2.24,6.25,1.5,7.5-4.25,11.88C16.69,14.85,15.36,11.29,12.28,9.62Z" transform="translate(0)"/><path class="cls-3" d="M50.43,29.24l15,.62,3.42-9.13,12.93,1.85L79,30.08l-9.57,7H41l-4.37-7,6.78-18.54,13.44.51ZM41.7,1.8H82.47l4.42,7-3.42,9L70.59,16.06,73,9.62,46.2,9Z" transform="translate(0)"/><path class="cls-3" d="M91.48,1.8H132.2l4.43,7-7.85,21.3-9.64,7H90.7l-4.37-7L93.1,11.56l13.5.51-6.4,17.17,15,.62,7.5-20.28L95.93,9Z" transform="translate(0)"/><path class="cls-3" d="M141.2,1.8h40.21l4.42,7L178,30.1l-9.63,7h-35l9.47-25.48,13.44.45-6.44,17.19,14.5.62,7.51-20.22L145.53,9Z" transform="translate(0)"/><path class="cls-3" d="M203.59,17.2h17.87l-7.56,5.54H201.58l-2.64,7.17,17.59-.67,6.88-4.87-4.7,12.73h-36l9.41-25.54,13.44.51ZM231.28,1.8l-4.67,12.68-3.33-4.84L194.89,9,190.46,1.8Z" transform="translate(0)"/><path class="cls-3" d="M249.12,9.53l9,12.6-5.47,15H239ZM246.77,1.8H260.2l13.21,18.82,7-18.82H294L281,37.1h-9Z" transform="translate(0)"/><path class="cls-3" d="M310.72,17.2h17.86L321,22.74H308.7l-2.63,7.17,17.59-.67,6.88-4.87-4.7,12.73h-36l9.36-25.56,13.44.51ZM338.38,1.8l-4.65,12.68-3.36-4.87L302,8.94l-4.42-7.17Z" transform="translate(0)"/><path class="cls-3" d="M355,14.29l21.39,4,4.37,4.48-2.63,7.33-9.64,7H340l-4.37-7,2.41-6.72,13,1.79-1.57,4.09,15,.67,2-5.15-21.84-4.37L340.78,16l1.62-4.43,13.5.51ZM340.79,1.8H381.5l4.43,7-2.52,6.83-12.94-1.79L372,9.64,345.2,9Z" transform="translate(0)"/><path class="cls-3" d="M395.45,9l-7.06,5.51L393,1.77h43.68L432,14.48l-3.3-4.87Zm22.34,3.24L408.61,37.1H395l9.41-25.37Z" transform="translate(0)"/></svg>